<svg version="1.2" xmlns="http://www.w3.org/2000/svg" viewBox="0 0 512 512" width="512" height="512"><defs><clipPath clipPathUnits="userSpaceOnUse" id="cp1"><path d="m256 512.19c-141.71 0-256.25-114.54-256.25-256.25 0-141.71 114.54-256.25 256.25-256.25 141.71 0 256.25 114.54 256.25 256.25 0 141.71-114.54 256.25-256.25 256.25z"/></clipPath><clipPath clipPathUnits="userSpaceOnUse" id="cp2"><path d="m256 512.19c-141.71 0-256.25-114.54-256.25-256.25 0-141.71 114.54-256.25 256.25-256.25 141.71 0 256.25 114.54 256.25 256.25 0 141.71-114.54 256.25-256.25 256.25z"/></clipPath></defs><style>.a{fill:none;stroke:#fff;stroke-miterlimit:10;stroke-width:40}.b{fill:#b91c1c}.c{fill:none;stroke:#fff;stroke-miterlimit:10;stroke-width:36}</style><g clip-path="url(#cp1)"><path fill-rule="evenodd" class="a" d="m4.3 484.2c114.9 69 273.4 91.5 378.8 48.5 172.3-70.4 164.7-266.3-14.9-322.7-123.3-38.8-250.5 29.3-250.5 113.3 0.1 72.8 76.2 112.3 138.7 113.3 73.5 1.2 138.2-35.6 126.2-86.4-13-55.5-122.6-62.3-167.6-13"/><path fill-rule="evenodd" class="a" d="m113.5 479.4c0 0 262.9-227.8 47.3-521.9"/></g><path class="b" d="m256 511.7c-141.5 0-255.8-114.3-255.8-255.8 0-141.4 114.3-255.7 255.8-255.7 141.5 0 255.8 114.3 255.8 255.7 0 141.5-114.3 255.8-255.8 255.8z"/><g clip-path="url(#cp2)"><path fill-rule="evenodd" class="c" d="m4.3 484.2c114.9 69 273.4 91.5 378.8 48.5 172.3-70.4 164.7-266.3-14.9-322.7-123.3-38.8-250.5 29.3-250.5 113.3 0.1 72.8 76.2 112.3 138.7 113.3 73.5 1.2 138.2-35.6 126.2-86.4-13-55.5-122.6-62.3-167.6-13"/><path fill-rule="evenodd" class="c" d="m113.5 479.4c0 0 262.9-227.8 47.3-521.9"/></g></svg>